<svg width="481" height="339" viewBox="0 0 481 339" fill="none" xmlns="http://www.w3.org/2000/svg">
<path fill-rule="evenodd" clip-rule="evenodd" d="M239.137 1.46637C237.81 3.52673 237.794 3.5686 237.447 5.88015C237.241 7.25143 236.965 8.26715 236.64 8.84964C236.368 9.33647 236.055 10.2502 235.944 10.8801C235.832 11.5097 235.654 12.5383 235.547 13.1655C235.439 13.7929 235.118 14.7914 234.832 15.3845C234.546 15.9775 234.22 17.0569 234.108 17.7832C233.85 19.4413 233.361 21.1976 233.001 21.7599C232.849 21.9969 232.577 22.9981 232.396 23.9847C232.215 24.9711 231.795 26.3424 231.464 27.032C231.133 27.7215 230.77 28.9047 230.658 29.6613C230.406 31.3734 230.114 32.3509 229.724 32.7991C229.557 32.9898 229.249 33.991 229.038 35.0239C228.827 36.057 228.391 37.4497 228.069 38.1186C227.747 38.7876 227.343 40.0816 227.17 40.9938C226.997 41.9062 226.617 43.109 226.326 43.6668C225.988 44.3136 225.728 45.25 225.607 46.2524C225.469 47.397 225.204 48.2634 224.632 49.4419C224.154 50.4269 223.797 51.5023 223.719 52.1904C223.643 52.8641 223.31 53.881 222.895 54.707C222.512 55.4693 222.198 56.3295 222.198 56.6185C222.198 57.4927 221.606 59.5192 221.178 60.1078C220.957 60.4122 220.634 61.3678 220.46 62.2315C220.286 63.0953 219.882 64.348 219.563 65.0155C219.243 65.6829 218.84 66.9039 218.666 67.7289C218.493 68.5539 218.16 69.5395 217.925 69.9191C217.691 70.2988 217.283 71.4896 217.018 72.5654C216.753 73.6412 216.37 74.7489 216.167 75.027C215.965 75.3051 215.59 76.1698 215.334 76.9484C215.079 77.7271 214.664 78.7283 214.412 79.1732C214.16 79.6182 213.76 80.7011 213.523 81.5798C213.286 82.4584 212.924 83.4141 212.719 83.7035C212.514 83.9927 212.163 84.8212 211.94 85.5442C211.717 86.2673 211.265 87.3595 210.935 87.9713C210.605 88.5831 210.229 89.5228 210.099 90.0591C209.968 90.5957 209.598 91.5059 209.275 92.0817C208.953 92.6577 208.58 93.5838 208.447 94.14C208.315 94.6962 207.949 95.579 207.635 96.1017C207.32 96.6245 206.917 97.6165 206.739 98.3064C206.56 98.9963 206.19 99.8883 205.916 100.289C205.642 100.689 205.225 101.654 204.989 102.432C204.753 103.211 204.347 104.164 204.088 104.551C203.828 104.937 203.464 105.711 203.279 106.27C203.094 106.829 202.733 107.605 202.476 107.995C202.22 108.384 201.823 109.249 201.595 109.916C201.366 110.583 200.922 111.493 200.608 111.938C200.294 112.383 199.974 113.02 199.896 113.354C199.752 113.974 198.786 116.177 197.234 119.422C196.756 120.423 195.985 122.061 195.521 123.062C195.057 124.063 194.465 125.292 194.206 125.793C193.947 126.293 193.456 127.294 193.114 128.017C192.771 128.741 192.359 129.56 192.197 129.838C192.036 130.116 191.761 130.662 191.587 131.051C191.413 131.441 191.043 132.169 190.765 132.669C190.487 133.17 189.989 134.171 189.658 134.894C189.328 135.617 188.932 136.436 188.78 136.714C188.628 136.992 187.836 138.54 187.022 140.153C186.207 141.766 185.243 143.559 184.88 144.138C184.517 144.716 184.219 145.267 184.219 145.361C184.219 145.456 183.869 146.074 183.44 146.736C183.011 147.398 182.591 148.167 182.505 148.445C182.42 148.723 182.036 149.382 181.653 149.909C181.269 150.437 180.871 151.176 180.767 151.553C180.663 151.929 180.262 152.636 179.875 153.122C179.488 153.609 179.068 154.326 178.941 154.715C178.733 155.35 178.074 156.472 177.753 156.738C177.686 156.793 177.509 157.157 177.361 157.547C177.212 157.936 176.842 158.576 176.539 158.969C176.236 159.363 175.745 160.163 175.449 160.749C175.153 161.334 174.783 161.862 174.627 161.922C174.47 161.982 174.105 162.654 173.815 163.415C173.524 164.175 173.146 164.915 172.974 165.058C172.803 165.2 172.446 165.776 172.182 166.336C171.198 168.425 170.251 170 169.685 170.492C169.364 170.77 168.905 171.498 168.665 172.11C168.425 172.721 167.973 173.473 167.66 173.781C167.347 174.089 167.03 174.589 166.955 174.893C166.881 175.197 166.549 175.788 166.216 176.206C165.884 176.625 165.472 177.307 165.302 177.723C165.131 178.139 164.731 178.753 164.414 179.087C164.096 179.42 163.699 180.024 163.531 180.427C163.362 180.831 163.005 181.423 162.735 181.744C162.466 182.064 162.11 182.651 161.944 183.049C161.778 183.446 161.406 183.958 161.116 184.186C160.827 184.414 160.401 185.044 160.17 185.585C159.939 186.127 159.533 186.797 159.268 187.076C159.004 187.354 158.654 187.9 158.491 188.289C158.328 188.678 157.963 189.198 157.679 189.444C157.396 189.69 156.926 190.362 156.635 190.937C156.344 191.512 155.924 192.176 155.703 192.411C155.481 192.647 155.17 193.148 155.011 193.524C154.853 193.901 154.405 194.561 154.017 194.991C153.629 195.422 153.311 195.861 153.311 195.968C153.311 196.075 153.043 196.468 152.716 196.841C152.389 197.214 151.912 197.888 151.656 198.338C151.399 198.788 150.758 199.783 150.229 200.548C149.387 201.769 148.926 202.387 147.529 204.166C147.354 204.388 146.972 204.935 146.68 205.38C146.387 205.824 145.951 206.38 145.71 206.615C145.469 206.849 145.039 207.41 144.754 207.862C144.47 208.313 144.141 208.742 144.024 208.814C143.907 208.887 143.496 209.418 143.11 209.994C141.374 212.586 140.111 214.212 138.817 215.52C138.344 215.997 137.958 216.475 137.958 216.583C137.958 216.69 137.841 216.898 137.697 217.045C137.554 217.192 136.85 218.075 136.132 219.006C134.244 221.456 133.868 221.93 133.373 222.481C132.861 223.053 131.144 225.104 130.929 225.403C130.762 225.634 129.522 227.235 129.069 227.805C126.77 230.696 126.79 230.674 122.44 235.365C119.83 238.179 119.407 238.652 118.796 239.445C118.502 239.826 117.262 241.17 116.039 242.432C114.817 243.693 113.317 245.273 112.706 245.943C111.304 247.477 109.467 249.369 108.957 249.804C108.741 249.988 108.377 250.352 108.148 250.613C107.919 250.875 107.577 251.225 107.389 251.392C107.201 251.559 106.74 252.014 106.365 252.404C105.99 252.793 105.558 253.227 105.407 253.369C105.036 253.716 101.807 257.079 101.263 257.685C100.648 258.372 97.8404 261.061 96.6459 262.108C96.0904 262.595 93.9506 264.616 91.8907 266.599C89.8309 268.583 87.9219 270.354 87.6484 270.537C87.3751 270.719 86.833 271.168 86.4442 271.535C86.0553 271.901 84.9644 272.933 84.02 273.828C83.0756 274.723 82.2314 275.457 82.1439 275.458C82.0564 275.459 81.5794 275.847 81.0839 276.32C80.5884 276.793 79.7508 277.557 79.2227 278.018C78.6947 278.479 77.4444 279.572 76.4444 280.446C75.4445 281.321 74.2398 282.299 73.7677 282.619C73.2954 282.939 72.9092 283.272 72.9092 283.359C72.9092 283.446 72.5684 283.722 72.1516 283.971C71.4031 284.419 70.947 284.805 69.06 286.584C67.6731 287.892 66.2879 289.072 65.8843 289.29C65.6926 289.393 65.1583 289.805 64.6971 290.206C63.3638 291.362 62.1579 292.33 61.3943 292.856C61.0054 293.124 60.5681 293.507 60.4224 293.707C60.2768 293.907 59.8677 294.215 59.5134 294.392C59.159 294.57 58.5964 294.983 58.2631 295.312C57.9298 295.64 56.9752 296.397 56.1419 296.994C54.1046 298.454 52.8228 299.481 51.9329 300.367C51.5257 300.772 50.9081 301.246 50.5605 301.421C50.2128 301.596 49.8789 301.868 49.8183 302.026C49.7579 302.184 49.2181 302.594 48.6189 302.937C48.0197 303.28 47.3537 303.755 47.1389 303.993C46.924 304.231 46.4086 304.599 45.9937 304.811C45.5786 305.023 45.0931 305.42 44.9149 305.692C44.7368 305.964 44.4148 306.243 44.1996 306.312C43.9843 306.38 43.396 306.793 42.8922 307.23C42.3885 307.666 41.9019 308.023 41.811 308.023C41.7199 308.023 41.1187 308.433 40.4749 308.933C39.8308 309.434 39.1765 309.844 39.0206 309.844C38.8646 309.844 38.3876 310.185 37.9606 310.602C37.5335 311.019 36.856 311.588 36.4548 311.866C36.0538 312.144 34.9869 312.941 34.0839 313.636C33.1809 314.331 32.3326 314.9 32.1989 314.9C32.0652 314.9 31.6024 315.182 31.1705 315.527C30.7383 315.872 29.9521 316.375 29.4228 316.644C28.8935 316.914 28.221 317.403 27.9285 317.732C27.636 318.061 27.2053 318.39 26.9716 318.464C26.7378 318.538 26.1831 318.893 25.7387 319.252C25.2942 319.612 24.6124 320.067 24.2236 320.265C23.8347 320.463 23.1529 320.93 22.7084 321.305C21.3806 322.422 19.1354 324.001 18.8738 324.001C18.7397 324.001 18.4568 324.193 18.2453 324.426C18.034 324.66 17.6227 324.975 17.3314 325.126C17.0401 325.277 16.3236 325.809 15.7389 326.308C15.1543 326.808 14.4129 327.275 14.0915 327.345C13.7701 327.416 13.2592 327.681 12.9564 327.935C12.6536 328.189 11.9374 328.684 11.3651 329.036C10.7926 329.387 10.1815 329.893 10.0068 330.16C9.83222 330.427 9.48233 330.708 9.2294 330.785C8.62821 330.967 5.64303 332.943 5.15901 333.479C4.95194 333.708 4.36044 334.035 3.84449 334.207C3.32855 334.379 2.64271 334.769 2.32049 335.075C1.99808 335.381 1.36274 335.814 0.908611 336.037C0.138126 336.416 0.0787332 336.506 0.021967 337.383C-0.0378295 338.307 -0.0259106 338.328 0.729019 338.595C2.01404 339.05 7.06643 338.952 10.1835 338.412C12.301 338.044 14.1596 337.916 19.7792 337.747C29.1859 337.465 31.9765 337.261 34.7283 336.65C36.3162 336.298 38.3943 336.045 41.2938 335.852C45.0485 335.601 45.7452 335.498 47.3543 334.954C48.8003 334.465 49.769 334.294 52.0861 334.121C54.8569 333.913 55.8098 333.728 58.3641 332.901C58.9752 332.703 60.4297 332.477 61.5963 332.399C63.2888 332.286 64.0696 332.121 65.4595 331.585C66.4176 331.216 67.9176 330.806 68.7927 330.676C69.668 330.545 71.0623 330.168 71.8912 329.838C72.7203 329.508 74.1293 329.138 75.0224 329.016C75.9186 328.894 77.2093 328.543 77.9024 328.234C78.5931 327.926 79.6839 327.568 80.3266 327.44C80.9692 327.311 82.318 326.902 83.3241 326.53C84.3301 326.159 85.5119 325.793 85.9502 325.718C86.9878 325.54 88.9558 324.861 89.754 324.405C90.1002 324.208 90.7414 323.983 91.1788 323.906C91.6162 323.829 92.6466 323.41 93.4686 322.974C94.2906 322.538 95.0943 322.181 95.2547 322.181C95.4148 322.181 96.5409 321.726 97.757 321.17C98.9731 320.614 100.191 320.158 100.463 320.158C100.736 320.158 101.216 319.941 101.531 319.676C102.166 319.141 103.477 318.54 104.009 318.54C104.198 318.54 104.781 318.235 105.305 317.862C105.829 317.489 106.641 317.064 107.108 316.917C107.576 316.771 108.239 316.446 108.582 316.195C109.161 315.772 112.433 314.06 114.524 313.086C115.024 312.853 115.888 312.394 116.443 312.067C116.999 311.739 117.578 311.469 117.73 311.466C117.882 311.464 118.33 311.177 118.725 310.83C119.121 310.482 119.724 310.08 120.065 309.936C120.406 309.792 121.049 309.415 121.494 309.098C121.938 308.78 122.569 308.403 122.895 308.259C123.221 308.115 123.827 307.729 124.241 307.401C124.655 307.073 125.316 306.669 125.711 306.504C126.105 306.339 126.727 305.943 127.092 305.623C127.457 305.304 128.216 304.81 128.779 304.526C129.341 304.242 129.927 303.858 130.081 303.673C130.234 303.488 130.707 303.197 131.132 303.027C131.557 302.857 132.066 302.513 132.262 302.263C132.459 302.013 132.917 301.654 133.281 301.466C133.644 301.278 134.277 300.821 134.687 300.45C135.097 300.08 135.777 299.633 136.199 299.457C136.914 299.159 137.918 298.407 139.441 297.03C139.792 296.713 140.415 296.281 140.826 296.071C141.236 295.861 141.646 295.571 141.735 295.428C141.824 295.284 142.368 294.825 142.943 294.408C143.518 293.991 144.018 293.581 144.054 293.497C144.09 293.413 144.551 293.036 145.079 292.66C145.607 292.284 146.039 291.899 146.039 291.804C146.039 291.709 146.425 291.382 146.897 291.077C147.369 290.773 148.074 290.23 148.463 289.871C148.852 289.512 149.561 288.876 150.038 288.457C150.516 288.039 151.244 287.378 151.657 286.989C152.07 286.6 152.771 286.01 153.213 285.679C153.656 285.349 155.336 283.793 156.947 282.224C158.558 280.654 160.467 278.814 161.19 278.134C165.103 274.454 177.014 262.189 179.682 259.091C180.011 258.71 180.831 257.788 181.505 257.044C182.178 256.3 183.223 255.051 183.828 254.269C184.432 253.487 185.881 251.695 187.048 250.287C188.214 248.879 189.379 247.437 189.637 247.082C189.894 246.727 190.667 245.809 191.354 245.041C192.041 244.274 192.648 243.536 192.704 243.402C192.76 243.269 193.057 242.85 193.365 242.472C194.712 240.818 196.764 238.297 197.223 237.731C197.497 237.392 198.228 236.363 198.847 235.443C199.465 234.522 200.291 233.379 200.682 232.902C201.072 232.424 201.596 231.754 201.846 231.412C202.096 231.069 202.877 230.032 203.583 229.107C204.288 228.182 205 227.166 205.164 226.849C205.328 226.533 205.773 226 206.153 225.665C206.534 225.331 206.845 224.944 206.845 224.806C206.845 224.668 207.035 224.383 207.267 224.173C207.499 223.963 208.356 222.787 209.172 221.561C209.988 220.335 210.889 219.111 211.174 218.843C211.46 218.574 211.693 218.246 211.693 218.113C211.693 217.98 212.039 217.427 212.461 216.884C212.883 216.341 213.397 215.509 213.603 215.036C213.809 214.563 214.108 214.068 214.266 213.936C214.424 213.805 214.772 213.266 215.038 212.739C215.305 212.212 215.762 211.523 216.054 211.209C216.345 210.895 216.805 210.201 217.076 209.668C217.347 209.134 217.705 208.645 217.873 208.581C218.041 208.516 218.447 207.929 218.777 207.275C219.106 206.622 219.464 206.087 219.572 206.087C219.68 206.087 220.044 205.541 220.38 204.874C220.717 204.206 221.086 203.66 221.202 203.66C221.317 203.66 221.688 203.068 222.026 202.345C222.365 201.621 222.757 200.961 222.898 200.879C223.04 200.796 223.359 200.318 223.608 199.818C223.857 199.317 224.282 198.671 224.552 198.382C224.821 198.094 225.289 197.41 225.59 196.863C226.414 195.367 226.879 194.602 227.593 193.572C227.949 193.058 228.503 192.137 228.823 191.525C229.5 190.236 230.64 188.463 231.374 187.559C231.655 187.214 232.061 186.531 232.277 186.042C232.493 185.554 232.916 184.881 233.217 184.547C233.518 184.214 233.887 183.651 234.038 183.298C234.189 182.944 234.723 182.067 235.225 181.348C235.727 180.63 236.137 179.954 236.137 179.848C236.137 179.742 236.317 179.492 236.538 179.292C236.758 179.093 237.269 178.259 237.673 177.441C238.077 176.622 238.465 175.951 238.535 175.951C238.605 175.95 238.998 175.641 239.408 175.264L240.155 174.578L241.099 174.911C241.862 175.18 242.192 175.464 242.826 176.394C243.257 177.027 243.69 177.594 243.788 177.655C243.886 177.715 244.173 178.29 244.427 178.931C244.68 179.573 245.08 180.371 245.315 180.705C245.551 181.038 246.003 181.837 246.32 182.479C246.637 183.121 246.985 183.701 247.093 183.768C247.202 183.835 247.443 184.22 247.63 184.623C247.817 185.026 248.399 186.009 248.922 186.808C249.446 187.606 249.874 188.312 249.874 188.377C249.874 188.443 250.229 189.018 250.662 189.657C251.095 190.295 251.596 191.136 251.775 191.525C251.955 191.914 252.509 192.87 253.006 193.649C253.898 195.046 254.192 195.595 254.794 196.989C254.963 197.38 255.314 198.017 255.575 198.405C255.835 198.793 256.303 199.656 256.615 200.323C256.927 200.991 257.35 201.719 257.555 201.941C257.76 202.164 258.118 202.79 258.35 203.333C258.582 203.877 259.043 204.663 259.373 205.082C259.704 205.5 259.975 205.933 259.975 206.044C259.975 206.236 261.558 208.745 262.743 210.43C263.054 210.872 263.409 211.464 263.532 211.745C263.655 212.026 264.092 212.658 264.504 213.15C264.915 213.641 265.373 214.278 265.522 214.566C265.671 214.854 265.993 215.271 266.238 215.493C266.484 215.715 266.849 216.215 267.049 216.605C267.25 216.994 267.582 217.495 267.786 217.717C267.99 217.939 268.37 218.585 268.631 219.152C268.892 219.719 269.37 220.432 269.692 220.737C270.014 221.041 270.278 221.41 270.278 221.556C270.278 221.702 270.591 222.096 270.973 222.433C271.356 222.769 271.891 223.483 272.163 224.021C272.436 224.558 272.86 225.18 273.106 225.403C273.352 225.625 273.729 226.153 273.945 226.576C274.16 226.998 274.472 227.396 274.639 227.46C274.805 227.524 275.122 227.931 275.343 228.364C275.564 228.798 276.105 229.629 276.546 230.21C276.986 230.792 277.347 231.379 277.348 231.515C277.348 231.65 277.63 231.969 277.974 232.223C278.318 232.476 278.738 232.957 278.906 233.291C279.075 233.624 279.432 234.125 279.701 234.403C280.781 235.521 282.013 237.084 282.376 237.796C282.587 238.21 282.955 238.726 283.194 238.942C283.433 239.159 283.866 239.773 284.157 240.308C284.447 240.842 284.753 241.28 284.836 241.28C284.919 241.28 285.222 241.683 285.511 242.175C285.799 242.668 286.194 243.23 286.389 243.425C286.583 243.619 286.994 244.104 287.301 244.501C288.08 245.508 289.04 246.626 289.881 247.508C290.275 247.92 290.766 248.53 290.974 248.864C291.181 249.198 291.477 249.546 291.631 249.638C291.785 249.729 292.203 250.197 292.559 250.676C294.525 253.324 297.713 256.932 303.33 262.864C304.676 264.286 306.022 265.741 306.321 266.099C306.999 266.907 317.477 277.434 318.161 277.992C318.436 278.217 319.057 278.852 319.542 279.404C320.027 279.956 320.709 280.58 321.057 280.791C321.686 281.172 322.604 281.987 323.465 282.928C323.711 283.197 324.077 283.561 324.277 283.737C324.478 283.913 325.051 284.443 325.549 284.916C326.048 285.389 326.536 285.775 326.633 285.775C326.73 285.775 327.003 286.089 327.24 286.473C327.476 286.856 327.853 287.229 328.078 287.3C328.302 287.371 328.917 287.808 329.446 288.271C330.417 289.121 331.728 290.108 333.119 291.034C333.939 291.58 335.705 292.994 336.034 293.367C336.51 293.908 339.314 296.157 339.87 296.444C340.204 296.616 340.598 296.927 340.744 297.134C340.89 297.342 341.356 297.688 341.78 297.905C342.203 298.121 342.6 298.431 342.663 298.594C342.725 298.757 343.214 299.141 343.748 299.447C344.283 299.753 345.142 300.306 345.656 300.676C346.171 301.046 346.687 301.349 346.803 301.349C346.919 301.349 347.271 301.656 347.584 302.03C347.898 302.405 348.609 302.911 349.165 303.154C349.72 303.396 350.402 303.809 350.68 304.07C350.958 304.332 351.511 304.714 351.911 304.919C352.702 305.326 355.125 306.943 355.932 307.602C356.21 307.829 356.537 308.016 356.66 308.019C356.782 308.021 357.504 308.432 358.265 308.932C359.025 309.432 359.834 309.9 360.062 309.971C360.291 310.043 360.865 310.367 361.338 310.692C361.812 311.016 362.494 311.379 362.854 311.498C363.213 311.617 363.826 311.962 364.215 312.264C365.016 312.888 366.104 313.484 366.441 313.484C366.565 313.484 367.072 313.763 367.568 314.104C368.063 314.445 368.943 314.916 369.523 315.15C370.103 315.384 370.76 315.732 370.982 315.923C371.489 316.358 373 317.125 373.352 317.125C373.497 317.125 373.936 317.343 374.328 317.609C374.72 317.876 375.673 318.286 376.446 318.52C377.218 318.754 378.251 319.218 378.74 319.552C379.229 319.885 379.786 320.158 379.978 320.158C380.441 320.158 381.714 320.699 382.373 321.176C382.884 321.546 384.077 321.99 385.325 322.275C385.659 322.352 386.386 322.693 386.941 323.035C387.497 323.376 388.486 323.781 389.14 323.934C389.793 324.086 391.02 324.515 391.867 324.887C392.713 325.258 393.86 325.627 394.416 325.707C394.972 325.787 395.699 326.009 396.032 326.2C396.986 326.745 398.362 327.195 399.532 327.345C400.123 327.42 401.214 327.785 401.956 328.157C402.943 328.651 403.78 328.891 405.08 329.053C406.371 329.213 407.16 329.438 407.969 329.877C408.857 330.357 409.497 330.523 411.12 330.689C412.24 330.804 413.53 331.035 413.988 331.202C416.36 332.069 417.254 332.272 419.595 332.474C421.51 332.639 422.581 332.847 423.883 333.307C425.212 333.776 426.201 333.965 428.098 334.11C429.58 334.224 431.348 334.512 432.496 334.826C435.404 335.621 435.837 335.695 438.455 335.833C441.211 335.979 444.547 336.381 447.647 336.939C448.814 337.149 451.313 337.38 453.202 337.453C461.992 337.79 466.973 338.144 469.061 338.58C470.869 338.957 471.778 339.018 475.222 338.996C478.117 338.977 479.491 338.889 480.07 338.685C480.835 338.416 480.882 338.352 480.939 337.491L481 336.58L479.828 336.043C479.183 335.748 478.429 335.289 478.151 335.023C477.873 334.758 477.283 334.39 476.838 334.207C476.394 334.024 475.791 333.648 475.498 333.372C474.843 332.754 472.861 331.531 470.98 330.584C470.202 330.192 468.884 329.37 468.05 328.756C467.217 328.142 466.172 327.445 465.727 327.208C464.734 326.676 460.768 323.882 459.667 322.936C459.222 322.555 458.041 321.801 457.041 321.261C456.041 320.722 454.878 319.933 454.456 319.51C454.034 319.087 453.262 318.513 452.739 318.234C451.832 317.751 450.737 317.027 448.96 315.737C448.516 315.414 447.879 315.006 447.546 314.831C447.213 314.655 446.577 314.189 446.134 313.795C445.691 313.402 445.229 313.08 445.109 313.08C444.988 313.08 444.675 312.851 444.413 312.573C444.152 312.294 443.477 311.803 442.914 311.481C442.35 311.159 441.705 310.727 441.479 310.521C440.357 309.499 438.989 308.453 438.354 308.133C437.965 307.936 437.374 307.528 437.041 307.224C436.708 306.921 436.026 306.44 435.526 306.155C435.026 305.871 434.443 305.447 434.232 305.213C434.02 304.979 433.732 304.787 433.59 304.787C433.449 304.787 432.985 304.459 432.561 304.058C432.136 303.658 431.553 303.208 431.266 303.059C430.978 302.91 430.523 302.548 430.255 302.255C429.988 301.961 429.509 301.555 429.191 301.352C428.6 300.974 427.643 300.199 426.16 298.896C425.7 298.493 425.019 297.978 424.645 297.752C423.903 297.303 422.732 296.355 421.661 295.335C421.284 294.976 420.681 294.531 420.321 294.347C419.962 294.164 419.395 293.763 419.062 293.456C417.385 291.915 416.579 291.26 415.983 290.956C415.623 290.772 415.178 290.391 414.993 290.109C414.809 289.828 414.402 289.464 414.087 289.302C413.442 288.968 411.082 286.699 411.082 286.413C411.082 286.31 410.765 286.075 410.378 285.891C409.991 285.707 409.578 285.377 409.46 285.157C409.343 284.938 408.864 284.521 408.397 284.231C407.929 283.941 407.32 283.496 407.042 283.241C406.764 282.986 406.165 282.586 405.71 282.352C405.256 282.117 404.769 281.709 404.628 281.446C404.487 281.182 404.146 280.845 403.871 280.698C403.596 280.55 403.098 280.085 402.765 279.664C402.432 279.243 402.079 278.899 401.981 278.899C401.883 278.899 401.03 278.148 400.084 277.23C399.139 276.312 398.204 275.412 398.007 275.229C397.81 275.046 397.446 274.682 397.198 274.42C396.317 273.487 394.995 272.257 393.103 270.608C392.047 269.688 390.911 268.637 390.578 268.274C390.244 267.91 389.063 266.81 387.952 265.829C386.186 264.27 382.68 261.024 378.347 256.937C377.63 256.26 376.27 254.858 375.326 253.821C374.381 252.784 373.153 251.472 372.596 250.905C372.039 250.339 371.094 249.284 370.496 248.561C369.899 247.838 368.718 246.506 367.873 245.601C367.028 244.696 365.609 243.15 364.72 242.165C362.013 239.166 361.31 238.412 360.706 237.863C360.387 237.573 360.023 237.216 359.898 237.07C359.772 236.923 358.88 235.968 357.916 234.946C355.897 232.808 354.991 231.8 354.065 230.661C353.704 230.216 353.358 229.807 353.297 229.751C353.235 229.695 352.968 229.331 352.703 228.942C352.437 228.553 351.896 227.897 351.5 227.486C351.105 227.074 350.488 226.392 350.13 225.969C348.83 224.432 347.732 223.212 346.892 222.371C346.42 221.898 346.033 221.419 346.033 221.307C346.033 221.195 345.693 220.738 345.276 220.293C344.859 219.848 344.266 219.131 343.959 218.701C343.65 218.271 342.943 217.373 342.387 216.706C341.831 216.038 341.219 215.221 341.028 214.89C340.836 214.559 340.349 213.967 339.944 213.575C339.539 213.184 339.05 212.544 338.856 212.155C338.663 211.766 338.379 211.374 338.227 211.285C338.075 211.195 337.757 210.74 337.521 210.273C337.123 209.485 336.555 208.767 334.814 206.85C334.438 206.435 333.976 205.798 333.789 205.435C333.602 205.07 333.27 204.646 333.051 204.492C332.832 204.338 332.437 203.72 332.172 203.12C331.906 202.52 331.556 201.978 331.393 201.916C331.23 201.853 330.534 200.877 329.846 199.748C329.158 198.618 328.341 197.421 328.032 197.087C327.722 196.753 327.335 196.162 327.171 195.772C327.007 195.383 326.553 194.755 326.16 194.377C325.768 193.998 325.389 193.426 325.318 193.104C325.248 192.783 324.835 192.108 324.4 191.606C323.965 191.103 323.61 190.629 323.61 190.552C323.609 190.475 323.246 190.003 322.802 189.503C322.358 189.002 321.994 188.482 321.994 188.347C321.994 188.211 321.733 187.802 321.415 187.437C321.096 187.071 320.599 186.268 320.309 185.651C320.019 185.034 319.507 184.326 319.17 184.078C318.834 183.829 318.559 183.505 318.559 183.358C318.559 183.211 318.294 182.725 317.97 182.277C317.646 181.829 317.188 181.084 316.952 180.62C316.716 180.157 316.208 179.444 315.824 179.036C315.439 178.628 315.125 178.225 315.125 178.141C315.125 178.057 314.765 177.429 314.324 176.747C313.884 176.065 313.462 175.313 313.387 175.077C313.312 174.841 312.901 174.281 312.473 173.833C312.045 173.385 311.694 172.919 311.693 172.797C311.69 172.463 311.087 171.28 310.551 170.555C310.289 170.201 310.075 169.848 310.075 169.77C310.075 169.693 309.723 169.114 309.293 168.483C308.863 167.852 308.353 167.022 308.159 166.638C307.965 166.254 307.599 165.713 307.346 165.434C307.092 165.156 306.678 164.428 306.426 163.816C306.174 163.205 305.812 162.522 305.623 162.299C305.433 162.077 305.052 161.485 304.777 160.985C304.501 160.484 304.001 159.665 303.665 159.165C303.33 158.664 302.989 158.027 302.908 157.749C302.827 157.471 302.416 156.697 301.994 156.03C301.573 155.362 301.163 154.599 301.083 154.334C301.004 154.068 300.635 153.451 300.263 152.964C299.891 152.476 299.528 151.765 299.457 151.385C299.386 151.004 298.99 150.316 298.577 149.854C298.157 149.386 297.72 148.617 297.585 148.112C297.452 147.615 297.13 146.995 296.869 146.733C296.608 146.472 295.822 145.09 295.123 143.661C294.424 142.232 293.657 140.835 293.419 140.557C293.181 140.279 292.817 139.531 292.611 138.895C292.405 138.259 292.025 137.54 291.767 137.298C291.51 137.055 291.157 136.37 290.985 135.775C290.812 135.18 290.417 134.397 290.108 134.035C289.798 133.674 289.341 132.831 289.091 132.164C288.841 131.496 288.467 130.768 288.259 130.546C288.052 130.323 287.683 129.595 287.439 128.928C287.195 128.26 286.794 127.487 286.548 127.208C286.301 126.93 285.891 126.111 285.636 125.388C285.381 124.665 284.966 123.864 284.713 123.609C284.46 123.353 284.144 122.692 284.012 122.14C283.88 121.588 283.538 120.796 283.254 120.38C282.969 119.964 282.57 119.093 282.366 118.444C282.162 117.795 281.689 116.702 281.315 116.017C280.941 115.331 280.518 114.315 280.376 113.759C280.233 113.202 279.959 112.565 279.768 112.343C279.281 111.779 279.061 111.285 278.78 110.133C278.646 109.585 278.323 108.883 278.062 108.573C277.802 108.262 277.345 107.277 277.048 106.383C276.75 105.49 276.436 104.758 276.349 104.758C276.187 104.758 275.724 103.382 275.306 101.655C275.176 101.117 274.855 100.422 274.594 100.112C274.333 99.8009 273.974 98.9674 273.796 98.2593C273.618 97.551 273.214 96.562 272.898 96.0614C272.582 95.5608 272.171 94.4687 271.986 93.6344C271.8 92.8001 271.487 91.9354 271.291 91.713C270.768 91.1202 270.52 90.5694 270.275 89.4633C270.154 88.9209 269.831 88.1347 269.557 87.7162C269.282 87.298 268.871 86.172 268.644 85.214C268.417 84.2561 268.003 83.1281 267.725 82.7072C267.447 82.2863 267.082 81.4158 266.914 80.7727C266.746 80.1295 266.337 79.0642 266.005 78.4057C265.673 77.7469 265.308 76.6491 265.193 75.9659C265.078 75.2827 264.759 74.3725 264.482 73.9432C263.981 73.1643 263.559 71.9295 263.326 70.5627C263.258 70.1651 262.947 69.4368 262.635 68.9441C262.323 68.4512 261.951 67.4577 261.81 66.7361C261.668 66.0144 261.248 64.8314 260.878 64.1074C260.507 63.3831 260.142 62.4485 260.067 62.03C259.991 61.6116 259.849 61.2194 259.75 61.1585C259.652 61.0976 259.571 60.8555 259.571 60.6207C259.571 60.3859 259.305 59.5949 258.98 58.8629C258.655 58.131 258.235 56.8495 258.047 56.0152C257.859 55.1809 257.5 54.1342 257.249 53.6893C256.997 53.2443 256.727 52.5617 256.649 52.1724C256.492 51.3939 254.507 45.1841 253.902 43.5766C253.692 43.0204 253.42 42.0647 253.297 41.4529C252.949 39.7182 252.665 38.7979 252.172 37.8124C251.922 37.3118 251.656 36.5382 251.58 36.0932C251.301 34.4535 250.893 33.1334 250.488 32.5641C250.104 32.0247 249.855 31.1382 249.484 28.9913C249.405 28.5338 249.16 27.8512 248.939 27.4744C248.487 26.7046 247.969 25.1658 247.759 23.9691C247.682 23.5304 247.403 22.7455 247.14 22.2251C246.876 21.7023 246.521 20.4099 246.349 19.3371C246.058 17.5275 245.596 15.9671 245.195 15.4417C245.007 15.1943 244.723 13.9254 244.412 11.9318C244.299 11.213 244.045 10.3483 243.846 10.0104C243.338 9.14534 242.863 7.63915 242.512 5.77559C242.329 4.80437 242.007 3.86834 241.69 3.38859C241.403 2.95435 240.987 2.01225 240.766 1.29506C240.544 0.577871 240.299 -0.00502369 240.22 3.26493e-05C240.141 0.00488674 239.654 0.66484 239.137 1.46637Z" fill="#9C413D"/>
</svg>
